<svg width="37" height="37" viewBox="0 0 37 37" fill="none" xmlns="http://www.w3.org/2000/svg">
<path d="M22.9496 6.65808V17.0406H8.36957L6.63421 18.7759V6.65808H22.9496ZM24.4328 3.69165H5.151C4.33523 3.69165 3.66779 4.3591 3.66779 5.17486V25.9399L9.60064 20.007H24.4328C25.2486 20.007 25.916 19.3396 25.916 18.5238V5.17486C25.916 4.3591 25.2486 3.69165 24.4328 3.69165ZM31.8489 9.62451H28.8824V22.9734H9.60064V25.9399C9.60064 26.7556 10.2681 27.4231 11.0839 27.4231H27.3992L33.3321 33.3559V11.1077C33.3321 10.292 32.6646 9.62451 31.8489 9.62451Z" fill="white"/>
<path d="M25.9688 5.28131C25.9611 4.01653 25.6823 3.55169 24.2472 3.55972H5.65398C4.1381 3.46388 3.56422 3.71159 3.58807 5.28131V25.9404L9.7858 20.087H24.2472C25.4791 19.881 25.8819 19.4938 25.9688 18.3654V5.28131Z" fill="white"/>
</svg>
