<svg width="18" height="19" viewBox="0 0 18 19" fill="none" xmlns="http://www.w3.org/2000/svg">
<path d="M17.4829 17.1281L17.0005 17.6104C15.5105 19.1004 10.0006 19.6105 4.50064 14.1105C-0.999364 8.61054 -0.499461 3.11044 1.00054 1.61044L1.49159 1.11939C2.27247 0.338513 3.57206 0.467707 4.18464 1.38655L6.20479 4.41671C6.66754 5.11081 6.57602 6.03504 5.98613 6.62491L4.93759 7.67341C4.66974 7.94125 4.58003 8.33654 4.75486 8.67258C5.07357 9.28514 5.73838 10.3483 7.00064 11.6105C8.26287 12.8728 9.32591 13.5375 9.93843 13.8562C10.2744 14.0311 10.6697 13.9414 10.9376 13.6735L11.9861 12.625C12.576 12.0351 13.5002 11.9436 14.1942 12.4063L17.2142 14.4196C18.1383 15.0357 18.2683 16.3427 17.4829 17.1281Z" fill="#1973F9"/>
</svg>
