<svg width="20" height="19" viewBox="0 0 20 19" fill="none" xmlns="http://www.w3.org/2000/svg">
<path d="M10 0.610352C4.5017 0.610352 0 4.60368 0 9.59309C0 11.1621 0.4419 12.6872 1.2812 14.0216C1.7322 14.7392 1.7742 15.7603 1.0938 17.1406C0.7849 17.7674 1.2096 18.51 1.9062 18.5758C3.2631 18.7046 4.4092 18.477 5.9688 17.8273C7.2112 18.3103 8.6155 18.5758 10 18.5758C15.4983 18.5758 20 14.5815 20 9.59309C20 4.60368 15.4983 0.610352 10 0.610352ZM10 2.60652C14.4428 2.60652 18 5.76245 18 9.59309C18 13.4237 14.4428 16.5797 10 16.5797C8.7214 16.5797 7.4873 16.3262 6.375 15.8311C6.1177 15.7163 5.8205 15.7183 5.5625 15.8311C4.6422 16.2333 4.1209 16.4529 3.4375 16.5487C3.8163 15.2462 3.5381 13.8669 2.9688 12.9616C2.3266 11.9406 2 10.7808 2 9.59309C2 5.76245 5.5572 2.60652 10 2.60652Z" fill="#1973F9"/>
</svg>
