<svg width="24" height="25" viewBox="0 0 24 25" fill="none" xmlns="http://www.w3.org/2000/svg">
<path d="M20.4824 20.0175L20 20.4998C18.51 21.9898 13.0001 22.4999 7.50015 16.9999C2.00015 11.4999 2.50005 5.99985 4.00005 4.49985L4.49111 4.00879C5.27198 3.22792 6.57157 3.35711 7.18415 4.27596L9.20431 7.30611C9.66705 8.00021 9.57553 8.92445 8.98564 9.51431L7.9371 10.5628C7.66925 10.8307 7.57954 11.2259 7.75437 11.562C8.07308 12.1745 8.73789 13.2377 10.0001 14.4999C11.2624 15.7622 12.3254 16.4269 12.9379 16.7456C13.274 16.9205 13.6692 16.8308 13.9371 16.5629L14.9856 15.5144C15.5755 14.9245 16.4997 14.833 17.1938 15.2957L20.2137 17.309C21.1378 17.9251 21.2678 19.2321 20.4824 20.0175Z" fill="#FEFCFC"/>
</svg>