<svg width="501" height="342" viewBox="0 0 501 342" fill="none" xmlns="http://www.w3.org/2000/svg">
<path d="M493.716 192.27C474.001 273.608 341.753 286.776 251.277 329.369C160.801 371.962 12.2477 283.133 6.8048 205.116C10.8875 143.881 19.496 116.162 118.84 84.0074C218.184 51.8523 277.143 91.7182 346.416 55.1339C415.689 18.5497 531.154 101.244 493.716 192.27Z" fill="url(#paint0_linear_357_2124)"/>
<g filter="url(#filter0_d_357_2124)">
<path d="M129.499 217.394C121.731 215.875 118.783 217.392 115.321 223.12C103.011 223.814 97.3123 221.155 88.054 214.122C81.5455 213.116 77.9006 212.321 71.4213 209.759C64.4668 198.852 61.3526 192.469 58.0605 180.311C60.3342 174.016 62.2601 170.677 66.7859 165.042C66.6748 152.864 68.2091 147.769 77.9653 139.956C83.9135 140.001 87.0863 138.654 91.0533 133.685C97.9585 134.052 100.801 133.141 104.959 128.504C110.044 128.911 114.101 126.893 117.229 123.323C124.426 121.815 124.951 121.846 131.135 115.961L146.405 147.591L157.584 171.858L171.49 201.306C164.845 200.34 162.003 201.183 156.766 204.851C149.184 204.239 146.715 206.842 142.588 211.94C135.882 210.179 133.317 212.109 129.499 217.394Z" fill="url(#paint1_linear_357_2124)"/>
<path d="M115.321 223.12C118.783 217.392 121.731 215.875 129.499 217.394M115.321 223.12C103.011 223.814 97.3123 221.155 88.054 214.122M115.321 223.12L77.9653 139.956M129.499 217.394C133.317 212.109 135.882 210.179 142.588 211.94M129.499 217.394L91.0533 133.685M142.588 211.94C146.715 206.842 149.184 204.239 156.766 204.851M142.588 211.94L104.959 128.504M156.766 204.851C162.003 201.183 164.845 200.34 171.49 201.306L157.584 171.858L146.405 147.591L131.135 115.961C124.951 121.846 124.426 121.815 117.229 123.323M156.766 204.851L117.229 123.323M117.229 123.323C114.101 126.893 110.044 128.911 104.959 128.504M104.959 128.504C100.801 133.141 97.9585 134.052 91.0533 133.685M91.0533 133.685C87.0863 138.654 83.9135 140.001 77.9653 139.956M77.9653 139.956C68.2091 147.769 66.6748 152.864 66.7859 165.042M66.7859 165.042C62.2601 170.677 60.3342 174.016 58.0605 180.311C61.3526 192.469 64.4668 198.852 71.4213 209.759C77.9006 212.321 81.5455 213.116 88.054 214.122M66.7859 165.042L88.054 214.122" stroke="#454B5A" stroke-opacity="0.36" stroke-width="0.545335"/>
<path d="M58.332 180.31C60.2015 174.035 62.1366 170.71 66.7847 165.041C66.7847 165.041 88.3255 214.121 87.7801 214.121C87.2348 214.121 77.9874 212.538 71.4201 209.759C64.1442 199.027 61.1698 192.618 58.332 180.31Z" fill="#100101"/>
<path d="M170.398 85.6949C151.998 96.939 148.934 90.5389 131.406 115.688L138.905 131.639L146.403 147.59L157.582 171.858L172.034 201.579C192.436 202.57 203.97 200.443 224.659 193.399C275.92 195.035 302.085 197.777 313.276 193.671C342.093 183.717 357.448 174.039 373.808 147.318C381.443 115.143 380.601 98.4807 369.718 67.1535C359.863 76.0189 352.626 78.37 336.725 78.3329C313.295 86.3213 301.616 81.9204 281.919 67.1535C258.312 43.1139 249.847 30.4855 268.558 13.9833C259.179 13.4604 255.207 12.7274 257.379 8.25732C224.055 17.2684 188.798 74.4509 170.398 85.6949Z" fill="url(#paint2_linear_357_2124)"/>
<path d="M170.124 85.6949C151.725 96.939 148.66 90.5389 131.133 115.688L138.631 131.639L146.13 147.59L157.309 171.858L171.76 201.579C192.162 202.57 203.697 200.443 224.385 193.399C275.647 195.035 301.811 197.777 313.002 193.671C341.82 183.717 357.174 174.039 373.534 147.318C381.169 115.143 380.327 98.4807 369.444 67.1535C378.715 141.319 375.635 163.766 336.452 161.224C327.863 184.2 318.71 185.727 300.732 184.128L302.095 146.772C284.24 139.693 274.726 134.622 262.831 114.325C246.078 106.073 235.631 102.241 239.655 78.3329C221.881 55.8595 220.769 44.4869 245.381 27.8894C244.214 18.8444 246.679 14.5213 257.105 8.25732C223.782 17.2684 188.524 74.4509 170.124 85.6949Z" fill="url(#paint3_linear_357_2124)"/>
<path d="M146.402 147.59C173.619 132.808 191.009 125.562 219.75 115.688C239.28 97.3041 252.166 86.2955 270.466 73.7276M284.1 64.6992C279.171 67.8637 274.675 70.8369 270.466 73.7276M157.582 171.858C185.68 163.502 202.518 157.409 229.839 143.228C259.658 141.826 277.486 140.444 305.095 136.93M313.275 135.865C310.447 136.241 307.726 136.595 305.095 136.93M270.466 73.7276V107.235C275.766 107.009 276.126 107.785 272.102 110.78C264.585 114.708 268.583 114.349 273.738 114.325C278.956 113.679 279.915 114.116 275.647 117.324C268.952 120.975 270.798 121.34 277.828 120.869L305.095 136.93" stroke="white" stroke-opacity="0.6" stroke-width="1.63601"/>
<path d="M170.124 85.6949C151.725 96.939 148.66 90.5389 131.133 115.688L138.631 131.639L146.13 147.59L151.719 159.724L157.309 171.858L171.76 201.579C192.162 202.57 203.697 200.443 224.385 193.399C275.647 195.035 301.811 197.777 313.002 193.671C341.82 183.717 357.174 174.039 373.534 147.318C381.169 115.143 380.327 98.4807 369.444 67.1535C378.715 141.319 375.635 163.766 336.452 161.224C327.863 184.2 318.71 185.727 300.732 184.128L302.095 146.772C284.24 139.693 274.726 134.622 262.831 114.325C246.078 106.073 235.631 102.241 239.655 78.3329C221.881 55.8595 220.769 44.4869 245.381 27.8894C244.214 18.8444 246.679 14.5213 257.105 8.25732C223.782 17.2684 188.524 74.4509 170.124 85.6949Z" fill="url(#paint4_linear_357_2124)" fill-opacity="0.6"/>
<path d="M257.108 8.25732C246.681 14.5213 244.216 18.8445 245.383 27.8894C220.771 44.4869 221.883 55.8595 239.657 78.3329C235.633 102.241 246.08 106.073 262.834 114.325C274.729 134.622 284.242 139.693 302.098 146.772M369.447 67.1535C378.718 141.319 375.637 163.766 336.454 161.224C327.866 184.2 318.712 185.727 300.735 184.128" stroke="url(#paint5_linear_357_2124)" stroke-width="1.09067"/>
</g>
<path d="M340.24 202.032C330.218 211.477 330.421 212.294 325.433 217.867C327.369 222.263 331.693 226.529 339.787 234.35C341.961 244.304 344.99 247.93 350.067 254.747C396.371 266.099 414.306 254.659 434.983 209.156C417.945 209.463 409.963 212.462 389.659 206.888C382.191 208.745 376.764 208.364 365.325 205.666C358.116 204.881 351.792 203.873 340.835 202.127L340.24 202.032Z" fill="url(#paint6_linear_357_2124)"/>
<path d="M435.374 208.96C414.696 254.463 396.761 265.902 350.457 254.551" stroke="#95B6AB" stroke-opacity="0.6" stroke-width="1.66118"/>
<path d="M299.941 240.878L276.723 224.736C264.465 227.445 261.991 232.646 260.191 244.111C252.022 259.324 247.809 267.458 246.152 275.68C301.307 288.676 322.415 288.713 337.107 271.82C302.09 274.223 290.993 269.539 299.941 240.878Z" fill="url(#paint7_linear_357_2124)"/>
<path d="M337.103 271.821C322.412 288.713 301.304 288.677 246.149 275.68" stroke="#95B6AB" stroke-opacity="0.6" stroke-width="1.87354"/>
<path d="M166.938 232.702C172.879 223.235 175.982 217.536 187.087 216.909L224.117 242.504C224.458 246.427 220.5 250.088 214.86 256.118C201.996 272.994 186.039 277.069 146.244 277.356C144.48 276.278 143.632 275.982 140.254 271.366C136.169 271.501 134.241 270.384 131.541 265.92C140.104 259.367 147.826 252.109 166.938 232.702Z" fill="url(#paint8_linear_357_2124)"/>
<path d="M131.541 265.921C134.241 270.385 136.169 271.502 140.254 271.366C143.632 275.983 144.48 276.279 146.244 277.357C186.039 277.069 201.996 272.994 214.86 256.119C220.5 250.089 224.458 246.428 224.117 242.504" stroke="#95B6AB" stroke-opacity="0.6" stroke-width="2.17827"/>
<defs>
<filter id="filter0_d_357_2124" x="48.5864" y="0.438866" width="343.11" height="237.763" filterUnits="userSpaceOnUse" color-interpolation-filters="sRGB">
<feFlood flood-opacity="0" result="BackgroundImageFix"/>
<feColorMatrix in="SourceAlpha" type="matrix" values="0 0 0 0 0 0 0 0 0 0 0 0 0 0 0 0 0 0 127 0" result="hardAlpha"/>
<feOffset dx="1.83779" dy="3.67559"/>
<feGaussianBlur stdDeviation="5.51338"/>
<feComposite in2="hardAlpha" operator="out"/>
<feColorMatrix type="matrix" values="0 0 0 0 0 0 0 0 0 0 0 0 0 0 0 0 0 0 0.1 0"/>
<feBlend mode="normal" in2="BackgroundImageFix" result="effect1_dropShadow_357_2124"/>
<feBlend mode="normal" in="SourceGraphic" in2="effect1_dropShadow_357_2124" result="shape"/>
</filter>
<linearGradient id="paint0_linear_357_2124" x1="252.729" y1="47.424" x2="255.316" y2="339.925" gradientUnits="userSpaceOnUse">
<stop stop-color="#93B7EC"/>
<stop offset="1" stop-color="white"/>
</linearGradient>
<linearGradient id="paint1_linear_357_2124" x1="115.048" y1="115.689" x2="115.048" y2="223.226" gradientUnits="userSpaceOnUse">
<stop stop-color="#D9D9D9"/>
<stop offset="1" stop-color="#737373"/>
</linearGradient>
<linearGradient id="paint2_linear_357_2124" x1="255.118" y1="8.25732" x2="257.651" y2="242.752" gradientUnits="userSpaceOnUse">
<stop stop-color="#EDEFF7"/>
<stop offset="1" stop-color="#BDBFCB"/>
</linearGradient>
<linearGradient id="paint3_linear_357_2124" x1="254.845" y1="8.25732" x2="254.845" y2="201.808" gradientUnits="userSpaceOnUse">
<stop stop-color="#E0E2EA"/>
<stop offset="1" stop-color="#C9CBD1"/>
</linearGradient>
<linearGradient id="paint4_linear_357_2124" x1="254.845" y1="8.25732" x2="176.668" y2="213.303" gradientUnits="userSpaceOnUse">
<stop stop-color="#F8F8FF"/>
<stop offset="0.468184" stop-color="#F8F8F8"/>
<stop offset="0.990885" stop-color="#AABAD1"/>
</linearGradient>
<linearGradient id="paint5_linear_357_2124" x1="300.198" y1="8.25732" x2="268.287" y2="192.581" gradientUnits="userSpaceOnUse">
<stop stop-color="#BEE3D6"/>
<stop offset="1" stop-color="#90B1A6"/>
</linearGradient>
<linearGradient id="paint6_linear_357_2124" x1="370.536" y1="215.131" x2="459.609" y2="306.965" gradientUnits="userSpaceOnUse">
<stop stop-color="#F3F3F3"/>
<stop offset="1" stop-color="#C4C6CC"/>
</linearGradient>
<linearGradient id="paint7_linear_357_2124" x1="287.332" y1="246.057" x2="299.747" y2="345.179" gradientUnits="userSpaceOnUse">
<stop stop-color="#F3F3F3"/>
<stop offset="1" stop-color="#C4C6CC"/>
</linearGradient>
<linearGradient id="paint8_linear_357_2124" x1="169.328" y1="237.702" x2="198.094" y2="339.608" gradientUnits="userSpaceOnUse">
<stop stop-color="#F3F3F3"/>
<stop offset="1" stop-color="#C4C6CC"/>
</linearGradient>
</defs>
</svg>
