<svg width="463" height="479" viewBox="0 0 463 479" fill="none" xmlns="http://www.w3.org/2000/svg">
<g filter="url(#filter0_d_623_4290)">
<path d="M135.582 241.467C140.834 267.78 161.259 301.157 201.156 318.916C211.203 338.877 219.102 351.982 233.389 360.823L315.389 326.823C320.355 296.333 310.045 298.541 307.023 278.265C323.618 233.261 320.958 196.694 290.485 160.757C258.549 130.425 229.042 124.802 191.677 139.15C162.206 150.466 143.355 174.004 137.088 199.659C133.763 213.27 132.84 227.727 135.582 241.467Z" fill="url(#paint0_linear_623_4290)" fill-opacity="0.89"/>
<path d="M163.624 232.859C157.164 238.012 157.724 238.467 151.65 232.693C149.11 207.467 155.504 193.103 165.734 170.12L165.734 170.12C172.836 164.775 173.181 167.168 176.428 173.159C169.958 197.439 162.899 210.222 163.624 232.859Z" fill="#FFFBEB"/>
<path d="M165.051 248.984C166.038 242.223 154.113 242.144 153.078 248.818C152.043 255.492 151.274 257.508 154.506 264.943C157.738 272.378 166.511 264.478 165.682 263.033C164.854 261.588 164.065 255.745 165.051 248.984Z" fill="#FFFBEB"/>
<path d="M285.028 263.838C298.287 221.838 294.21 198.938 282.389 153.823C326.428 194.078 325.117 231.772 309.605 278.22C314.184 301.794 321.029 305.77 314.889 325.823L264.866 347.8C277.774 337.763 283.695 329.503 292.982 315.568C294.859 297.951 295.418 287.816 285.028 263.838Z" fill="url(#paint1_linear_623_4290)" fill-opacity="0.89"/>
<rect x="75.0273" y="280.907" width="51.0486" height="14.1775" rx="7.08877" transform="rotate(-21.0058 75.0273 280.907)" fill="#FED365"/>
<rect x="327.861" y="183.081" width="51.0486" height="14.1775" rx="7.08877" transform="rotate(-21.0058 327.861 183.081)" fill="#FED365"/>
<rect x="65.4355" y="159.989" width="51.0486" height="14.1775" rx="7.08877" transform="rotate(12.8097 65.4355 159.989)" fill="#FED365"/>
<rect x="308.678" y="81.6836" width="51.0486" height="14.1775" rx="7.08877" transform="rotate(111.868 308.678 81.6836)" fill="#FED365"/>
<rect x="167.432" y="73.1851" width="51.0486" height="14.1775" rx="7.08877" transform="rotate(65.8134 167.432 73.1851)" fill="#FED365"/>
</g>
<g filter="url(#filter1_d_623_4290)">
<path d="M330.207 365.204C328.543 372.581 329.911 375.437 335.285 378.901C335.609 390.674 332.915 396.043 325.944 404.69C324.805 410.877 323.946 414.336 321.321 420.453C310.715 426.794 304.535 429.592 292.835 432.402C286.886 430.058 283.751 428.127 278.494 423.651C266.863 423.423 262.04 421.818 254.847 412.287C255.054 406.608 253.854 403.542 249.218 399.617C249.759 393.034 248.967 390.295 244.653 386.196C245.182 381.352 243.366 377.422 240.043 374.338C238.8 367.424 238.845 366.924 233.395 360.857L264.017 347.145L287.497 337.136L315.998 324.666C314.893 330.985 315.62 333.722 318.979 338.823C318.185 346.047 320.603 348.476 325.359 352.557C323.493 358.912 325.265 361.414 330.207 365.204Z" fill="url(#paint2_linear_623_4290)"/>
<path d="M335.285 378.901C329.911 375.437 328.543 372.581 330.207 365.204M335.285 378.901C335.609 390.674 332.915 396.043 325.944 404.69M335.285 378.901L254.847 412.287M330.207 365.204C325.265 361.414 323.493 358.912 325.359 352.557M330.207 365.204L249.218 399.617M325.359 352.557C320.603 348.476 318.185 346.047 318.979 338.823M325.359 352.557L244.653 386.196M318.979 338.823C315.62 333.722 314.893 330.985 315.998 324.666L287.497 337.136L264.017 347.145L233.395 360.857C238.845 366.924 238.8 367.424 240.043 374.338M318.979 338.823L240.043 374.338M240.043 374.338C243.366 377.422 245.182 381.352 244.653 386.196M244.653 386.196C248.967 390.295 249.759 393.034 249.218 399.617M249.218 399.617C253.854 403.542 255.054 406.608 254.847 412.287M254.847 412.287C262.04 421.818 266.863 423.423 278.494 423.651M278.494 423.651C283.751 428.127 286.886 430.058 292.835 432.402C304.535 429.592 310.715 426.794 321.321 420.453C323.946 414.336 324.805 410.877 325.944 404.69M278.494 423.651L325.944 404.69" stroke="#454B5A" stroke-opacity="0.36" stroke-width="0.520946"/>
<path d="M292.969 431.881C287.03 429.92 283.909 427.978 278.626 423.38C278.626 423.38 326.097 404.193 326.082 404.713C326.067 405.234 324.295 414.02 321.456 420.212C311.004 426.858 304.801 429.518 292.969 431.881Z" fill="#100101"/>
</g>
<defs>
<filter id="filter0_d_623_4290" x="12.5497" y="15.3228" width="437.945" height="457.287" filterUnits="userSpaceOnUse" color-interpolation-filters="sRGB">
<feFlood flood-opacity="0" result="BackgroundImageFix"/>
<feColorMatrix in="SourceAlpha" type="matrix" values="0 0 0 0 0 0 0 0 0 0 0 0 0 0 0 0 0 0 127 0" result="hardAlpha"/>
<feOffset dy="4.83893"/>
<feGaussianBlur stdDeviation="2.41947"/>
<feComposite in2="hardAlpha" operator="out"/>
<feColorMatrix type="matrix" values="0 0 0 0 0.899593 0 0 0 0 0.801842 0 0 0 0 0.288649 0 0 0 0.25 0"/>
<feBlend mode="normal" in2="BackgroundImageFix" result="effect1_dropShadow_623_4290"/>
<feBlend mode="normal" in="SourceGraphic" in2="effect1_dropShadow_623_4290" result="shape"/>
</filter>
<filter id="filter1_d_623_4290" x="117.275" y="297.033" width="237.294" height="154.089" filterUnits="userSpaceOnUse" color-interpolation-filters="sRGB">
<feFlood flood-opacity="0" result="BackgroundImageFix"/>
<feColorMatrix in="SourceAlpha" type="matrix" values="0 0 0 0 0 0 0 0 0 0 0 0 0 0 0 0 0 0 127 0" result="hardAlpha"/>
<feOffset dx="1.7556" dy="3.5112"/>
<feGaussianBlur stdDeviation="5.2668"/>
<feComposite in2="hardAlpha" operator="out"/>
<feColorMatrix type="matrix" values="0 0 0 0 0 0 0 0 0 0 0 0 0 0 0 0 0 0 0.1 0"/>
<feBlend mode="normal" in2="BackgroundImageFix" result="effect1_dropShadow_623_4290"/>
<feBlend mode="normal" in="SourceGraphic" in2="effect1_dropShadow_623_4290" result="shape"/>
</filter>
<linearGradient id="paint0_linear_623_4290" x1="116.947" y1="167.845" x2="270.459" y2="344.706" gradientUnits="userSpaceOnUse">
<stop offset="0.00377003" stop-color="#FCDC8C"/>
<stop offset="0.65" stop-color="#FFC531"/>
</linearGradient>
<linearGradient id="paint1_linear_623_4290" x1="197.728" y1="216.375" x2="311.71" y2="329.813" gradientUnits="userSpaceOnUse">
<stop stop-color="#FFCC48"/>
<stop offset="1" stop-color="#ECBB3D"/>
</linearGradient>
<linearGradient id="paint2_linear_623_4290" x1="232.693" y1="376.211" x2="335.379" y2="379.164" gradientUnits="userSpaceOnUse">
<stop stop-color="#D9D9D9"/>
<stop offset="1" stop-color="#737373"/>
</linearGradient>
</defs>
</svg>
