<svg width="35" height="35" viewBox="0 0 35 35" fill="none" xmlns="http://www.w3.org/2000/svg">
<path fill-rule="evenodd" clip-rule="evenodd" d="M21.66 6.22604C23.0758 6.79369 23.5089 8.77061 24.0878 9.40605C24.6667 10.0415 25.4952 10.2575 25.9535 10.2575C28.3898 10.2575 30.3648 12.2472 30.3648 14.7V22.883C30.3648 26.1731 27.7155 28.842 24.4495 28.842H10.348C7.0805 28.842 4.43262 26.1731 4.43262 22.883V14.7C4.43262 12.2472 6.40767 10.2575 8.84389 10.2575C9.30086 10.2575 10.1293 10.0415 10.7096 9.40605C11.2885 8.77061 11.7203 6.79369 13.136 6.22604C14.5532 5.65838 20.2442 5.65838 21.66 6.22604Z" stroke="black" stroke-width="2.10261" stroke-linecap="round" stroke-linejoin="round"/>
<path d="M25.1018 13.9194H25.1144" stroke="black" stroke-width="2.10261" stroke-linecap="round" stroke-linejoin="round"/>
<path fill-rule="evenodd" clip-rule="evenodd" d="M21.8537 19.0422C21.8537 16.5626 19.859 14.5532 17.3975 14.5532C14.9361 14.5532 12.9414 16.5626 12.9414 19.0422C12.9414 21.5219 14.9361 23.5313 17.3975 23.5313C19.859 23.5313 21.8537 21.5219 21.8537 19.0422Z" stroke="black" stroke-width="2.10261" stroke-linecap="round" stroke-linejoin="round"/>
</svg>
