<svg width="26" height="21" viewBox="0 0 26 21" fill="none" xmlns="http://www.w3.org/2000/svg">
<path fill-rule="evenodd" clip-rule="evenodd" d="M1.50909 5.62158C1.15518 5.62158 0.978218 5.62158 0.841628 5.54975C0.724286 5.48804 0.623966 5.3833 0.567364 5.26341C0.501479 5.12385 0.508795 4.95411 0.523428 4.61463C0.560762 3.74848 0.657591 3.162 0.908726 2.66912C1.26825 1.96351 1.84193 1.38983 2.54754 1.03031C3.3497 0.621582 4.3998 0.621582 6.5 0.621582H19.5C21.6002 0.621582 22.6503 0.621582 23.4525 1.03031C24.1581 1.38983 24.7318 1.96351 25.0913 2.66912C25.3424 3.162 25.4392 3.74848 25.4766 4.61463C25.4912 4.95411 25.4985 5.12385 25.4326 5.26341C25.376 5.3833 25.2757 5.48804 25.1584 5.54975C25.0218 5.62158 24.8448 5.62158 24.4909 5.62158H1.50909ZM0.5 9.12158C0.5 8.77155 0.5 8.59653 0.568121 8.46284C0.628042 8.34524 0.723655 8.24962 0.841256 8.1897C0.974951 8.12158 1.14997 8.12158 1.5 8.12158H24.5C24.85 8.12158 25.025 8.12158 25.1587 8.1897C25.2763 8.24962 25.372 8.34524 25.4319 8.46284C25.5 8.59653 25.5 8.77155 25.5 9.12158V14.6216C25.5 16.7218 25.5 17.7719 25.0913 18.574C24.7318 19.2797 24.1581 19.8533 23.4525 20.2129C22.6503 20.6216 21.6002 20.6216 19.5 20.6216H6.5C4.3998 20.6216 3.3497 20.6216 2.54754 20.2129C1.84193 19.8533 1.26825 19.2797 0.908726 18.574C0.5 17.7719 0.5 16.7218 0.5 14.6216V9.12158ZM6.75 13.1216C6.05964 13.1216 5.5 13.6812 5.5 14.3716C5.5 15.0619 6.05964 15.6216 6.75 15.6216H11.75C12.4404 15.6216 13 15.0619 13 14.3716C13 13.6812 12.4404 13.1216 11.75 13.1216H6.75Z" fill="#979DBD"/>
</svg>
