<svg width="15" height="17" viewBox="0 0 15 17" fill="none" xmlns="http://www.w3.org/2000/svg">
<path d="M2.93547 3.42529C2.78623 3.42529 2.63017 3.48051 2.51627 3.6057C2.28852 3.85672 2.28852 4.27787 2.51627 4.52889L6.17956 8.56132L2.51627 12.5937C2.28852 12.8448 2.28852 13.2659 2.51627 13.5169C2.74407 13.7673 3.12688 13.7673 3.35468 13.5169L7.01792 9.48452L10.6812 13.5169C10.909 13.7673 11.2918 13.7673 11.5196 13.5169C11.7473 13.2659 11.7473 12.8448 11.5196 12.5937L7.85629 8.56132L11.5196 4.52889C11.7473 4.27787 11.7473 3.85672 11.5196 3.6057C11.4057 3.48051 11.2496 3.42529 11.1004 3.42529C10.9511 3.42529 10.7951 3.48051 10.6812 3.6057L7.01792 7.63811L3.35468 3.6057C3.24078 3.48051 3.08472 3.42529 2.93547 3.42529Z" fill="#272727"/>
</svg>
