<svg width="95" height="95" viewBox="0 0 95 95" fill="none" xmlns="http://www.w3.org/2000/svg">
<path fill-rule="evenodd" clip-rule="evenodd" d="M47.5 95C73.7335 95 95 73.7335 95 47.5C95 21.2665 73.7335 0 47.5 0C21.2665 0 0 21.2665 0 47.5C0 73.7335 21.2665 95 47.5 95ZM47.4999 49.0388C55.2559 49.0388 61.4702 42.8242 61.4702 35.0737C61.4702 27.3232 55.2559 21.1112 47.4999 21.1112C39.7466 21.1112 33.5297 27.3232 33.5297 35.0737C33.5297 42.8242 39.7466 49.0388 47.4999 49.0388ZM26.3913 64.8504C26.3913 72.0282 36.0559 73.8887 47.5024 73.8887C58.8882 73.8887 68.6135 72.0942 68.6135 64.9137C68.6135 57.7359 58.9515 55.8754 47.5024 55.8754C36.1166 55.8754 26.3913 57.6699 26.3913 64.8504Z" fill="#1973F9"/>
</svg>
