<svg width="27" height="27" viewBox="0 0 27 27" fill="none" xmlns="http://www.w3.org/2000/svg">
<path fill-rule="evenodd" clip-rule="evenodd" d="M10.5484 22.5314L20.4331 9.74862C20.9703 9.05929 21.1614 8.26233 20.9823 7.45086C20.8271 6.71316 20.3734 6.01174 19.693 5.47963L18.0336 4.16145C16.5891 3.01257 14.7984 3.1335 13.7717 4.45169L12.6615 5.89202C12.5182 6.07221 12.554 6.33827 12.7331 6.48339C12.7331 6.48339 15.5385 8.73277 15.5982 8.78114C15.7892 8.96254 15.9325 9.20441 15.9683 9.49466C16.028 10.063 15.634 10.5952 15.0491 10.6677C14.7745 10.704 14.5119 10.6193 14.3209 10.4621L11.3722 8.116C11.2289 8.00837 11.014 8.03135 10.8947 8.17647L3.88703 17.2466C3.43339 17.8149 3.27819 18.5526 3.43339 19.2662L4.32874 23.1482C4.37649 23.3537 4.55556 23.4989 4.77044 23.4989L8.70999 23.4505C9.42627 23.4384 10.0948 23.1119 10.5484 22.5314ZM16.0647 21.3223H22.4886C23.1153 21.3223 23.6251 21.8387 23.6251 22.4736C23.6251 23.1097 23.1153 23.6249 22.4886 23.6249H16.0647C15.438 23.6249 14.9282 23.1097 14.9282 22.4736C14.9282 21.8387 15.438 21.3223 16.0647 21.3223Z" fill="#FEFCFC"/>
</svg>
