<svg width="28" height="29" viewBox="0 0 28 29" fill="none" xmlns="http://www.w3.org/2000/svg">
<path d="M19.2499 3.79578C17.2199 3.79578 15.2716 4.74078 13.9999 6.23411C12.7283 4.74078 10.7799 3.79578 8.74992 3.79578C5.15659 3.79578 2.33325 6.61911 2.33325 10.2124C2.33325 14.6224 6.29992 18.2158 12.3083 23.6758L13.9999 25.2041L15.6916 23.6641C21.6999 18.2158 25.6666 14.6224 25.6666 10.2124C25.6666 6.61911 22.8433 3.79578 19.2499 3.79578ZM14.1166 21.9374L13.9999 22.0541L13.8833 21.9374C8.32992 16.9091 4.66659 13.5841 4.66659 10.2124C4.66659 7.87911 6.41659 6.12911 8.74992 6.12911C10.5466 6.12911 12.2966 7.28411 12.9149 8.88244H15.0966C15.7033 7.28411 17.4533 6.12911 19.2499 6.12911C21.5833 6.12911 23.3333 7.87911 23.3333 10.2124C23.3333 13.5841 19.6699 16.9091 14.1166 21.9374Z" fill="#1973F9"/>
</svg>