<svg width="71" height="79" viewBox="0 0 71 79" fill="none" xmlns="http://www.w3.org/2000/svg">
<path d="M43.8058 65.4263H28.2494C27.5212 66.3471 27.5086 66.8788 28.2494 67.857H43.8058C44.6774 66.9377 44.6144 66.4032 43.8058 65.4263Z" fill="#BAB9B6"/>
<path d="M43.8058 69.3154H28.2494C27.8285 70.0129 27.8826 70.4466 28.2494 71.2599H43.8058C44.1389 70.5004 44.1778 70.0749 43.8058 69.3154Z" fill="#BAB9B6"/>
<path d="M28.7355 74.6629C28.3256 73.8516 28.2121 73.4116 28.7355 72.7184H42.8336C43.3238 73.4778 43.0895 73.9035 42.8336 74.6629H28.7355Z" fill="#BAB9B6"/>
<path d="M42.3475 76.1213H29.2217C30.0541 77.5016 30.8413 77.8747 32.6247 78.0659H39.4306C41.318 77.616 41.9942 77.2065 42.3475 76.1213Z" fill="#BAB9B6"/>
<path d="M43.8058 65.4263H28.2494C27.5212 66.3471 27.5086 66.8788 28.2494 67.857H43.8058C44.6774 66.9377 44.6144 66.4032 43.8058 65.4263Z" stroke="#8F8E8C" stroke-opacity="0.89" stroke-width="0.97228"/>
<path d="M43.8058 69.3154H28.2494C27.8285 70.0129 27.8826 70.4466 28.2494 71.2599H43.8058C44.1389 70.5004 44.1778 70.0749 43.8058 69.3154Z" stroke="#8F8E8C" stroke-opacity="0.89" stroke-width="0.97228"/>
<path d="M28.7355 74.6629C28.3256 73.8516 28.2121 73.4116 28.7355 72.7184H42.8336C43.3238 73.4778 43.0895 73.9035 42.8336 74.6629H28.7355Z" stroke="#8F8E8C" stroke-opacity="0.89" stroke-width="0.97228"/>
<path d="M42.3475 76.1213H29.2217C30.0541 77.5016 30.8413 77.8747 32.6247 78.0659H39.4306C41.318 77.616 41.9942 77.2065 42.3475 76.1213Z" stroke="#8F8E8C" stroke-opacity="0.89" stroke-width="0.97228"/>
<path d="M16.0744 32.3268C15.084 38.1087 16.6371 46.5217 23.3882 53.2729C23.8744 58.1343 24.5682 61.044 26.7912 63.9679H44.7783C48.1813 58.1343 47.2091 57.6481 48.1813 53.2729C55.0951 45.3882 57.418 37.7164 54.015 27.9936C49.874 19.3002 44.2922 15.8401 35.5417 15.8401C28.6399 15.8401 22.9479 19.1667 19.6581 23.9118C17.9128 26.4292 16.5915 29.3075 16.0744 32.3268Z" fill="url(#paint0_linear_268_2113)" fill-opacity="0.89"/>
<path d="M43.8058 65.4263H28.2494C27.5212 66.3471 27.5086 66.8788 28.2494 67.857H43.8058C44.6774 66.9377 44.6144 66.4032 43.8058 65.4263Z" fill="url(#paint1_radial_268_2113)"/>
<path d="M43.8058 69.3154H28.2494C27.8285 70.0129 27.8826 70.4466 28.2494 71.2599H43.8058C44.1389 70.5004 44.1778 70.0749 43.8058 69.3154Z" fill="url(#paint2_radial_268_2113)"/>
<path d="M28.7355 74.6629C28.3256 73.8516 28.2121 73.4116 28.7355 72.7184H42.8336C43.3238 73.4778 43.0895 73.9035 42.8336 74.6629H28.7355Z" fill="url(#paint3_radial_268_2113)"/>
<path d="M42.3475 76.1213H29.2217C30.0541 77.5016 30.8413 77.8747 32.6247 78.0659H39.4306C41.318 77.616 41.9942 77.2065 42.3475 76.1213Z" fill="url(#paint4_radial_268_2113)"/>
<path d="M43.8058 65.4263H28.2494C27.5212 66.3471 27.5086 66.8788 28.2494 67.857H43.8058C44.6774 66.9377 44.6144 66.4032 43.8058 65.4263Z" stroke="#8F8E8C" stroke-opacity="0.6" stroke-width="0.97228"/>
<path d="M43.8058 69.3154H28.2494C27.8285 70.0129 27.8826 70.4466 28.2494 71.2599H43.8058C44.1389 70.5004 44.1778 70.0749 43.8058 69.3154Z" stroke="#8F8E8C" stroke-opacity="0.6" stroke-width="0.97228"/>
<path d="M28.7355 74.6629C28.3256 73.8516 28.2121 73.4116 28.7355 72.7184H42.8336C43.3238 73.4778 43.0895 73.9035 42.8336 74.6629H28.7355Z" stroke="#8F8E8C" stroke-opacity="0.6" stroke-width="0.97228"/>
<path d="M42.3475 76.1213H29.2217C30.0541 77.5016 30.8413 77.8747 32.6247 78.0659H39.4306C41.318 77.616 41.9942 77.2065 42.3475 76.1213Z" stroke="#8F8E8C" stroke-opacity="0.6" stroke-width="0.97228"/>
<path d="M44.2922 48.4116C50.29 40.8784 51.4336 35.6974 52.5566 25.563C58.3903 37.2303 54.9873 45.0086 48.1814 53.273C47.2684 58.4433 47.6031 60.3565 44.7784 63.968H33.5972C37.0182 62.931 38.874 61.7092 41.8615 59.5928C43.6253 56.1443 44.5337 54.1197 44.2922 48.4116Z" fill="url(#paint5_linear_268_2113)" fill-opacity="0.89"/>
<rect width="11.1606" height="3.09959" rx="1.5498" transform="matrix(0.836305 -0.548265 0.548263 0.836306 6.85938 58.906)" fill="#FED365"/>
<rect width="11.1606" height="3.09959" rx="1.5498" transform="matrix(0.830753 0.556642 -0.556643 0.830752 57.1987 52.7871)" fill="#FED365"/>
<rect x="0.09375" y="35.438" width="11.1606" height="3.09959" rx="1.5498" fill="#FED365"/>
<rect x="59.3625" y="35.2854" width="11.1606" height="3.09959" rx="1.5498" fill="#FED365"/>
<rect width="11.1606" height="3.09959" rx="1.5498" transform="matrix(0.830834 0.55652 -0.55652 0.830835 7.6123 10.0066)" fill="#FED365"/>
<rect x="63.394" y="13.0872" width="11.1606" height="3.09959" rx="1.5498" transform="rotate(132.874 63.394 13.0872)" fill="#FED365"/>
<rect x="35.2334" y="0.283691" width="11.1606" height="3.09959" rx="1.5498" transform="rotate(86.8191 35.2334 0.283691)" fill="#FED365"/>
<path d="M21.4436 33.341C19.7311 33.667 19.7311 33.468 19.0128 32.1698C20.4713 26.8223 22.902 24.3916 26.7911 20.5025L26.7911 20.5024C28.6596 19.9682 28.5423 20.6826 28.7357 22.1598C25.5122 26.6082 23.0698 28.6642 21.4436 33.341Z" fill="#FFFBEB"/>
<path d="M20.4713 36.744C21.2025 35.4414 18.7749 34.4906 18.0406 35.7717C17.3062 37.0528 17.4188 37.5944 17.7674 39.5582C18.1159 41.5219 20.4712 40.4096 20.4713 39.4278C20.4713 38.4459 19.7401 38.0466 20.4713 36.744Z" fill="#FFFBEB"/>
<defs>
<linearGradient id="paint0_linear_268_2113" x1="18.0407" y1="15.8401" x2="35.5116" y2="63.9679" gradientUnits="userSpaceOnUse">
<stop offset="0.00377003" stop-color="#FCDC8C"/>
<stop offset="0.65" stop-color="#FFC531"/>
</linearGradient>
<radialGradient id="paint1_radial_268_2113" cx="0" cy="0" r="1" gradientUnits="userSpaceOnUse" gradientTransform="translate(36.0673 71.7461) rotate(88.7955) scale(16.9092 22.3914)">
<stop stop-color="#545452"/>
<stop offset="0.0276326" stop-color="#BAB9B6"/>
<stop offset="0.581728" stop-color="#545452"/>
</radialGradient>
<radialGradient id="paint2_radial_268_2113" cx="0" cy="0" r="1" gradientUnits="userSpaceOnUse" gradientTransform="translate(36.0673 71.7461) rotate(88.7955) scale(16.9092 22.3914)">
<stop stop-color="#545452"/>
<stop offset="0.0276326" stop-color="#BAB9B6"/>
<stop offset="0.581728" stop-color="#545452"/>
</radialGradient>
<radialGradient id="paint3_radial_268_2113" cx="0" cy="0" r="1" gradientUnits="userSpaceOnUse" gradientTransform="translate(36.0673 71.7461) rotate(88.7955) scale(16.9092 22.3914)">
<stop stop-color="#545452"/>
<stop offset="0.0276326" stop-color="#BAB9B6"/>
<stop offset="0.581728" stop-color="#545452"/>
</radialGradient>
<radialGradient id="paint4_radial_268_2113" cx="0" cy="0" r="1" gradientUnits="userSpaceOnUse" gradientTransform="translate(36.0673 71.7461) rotate(88.7955) scale(16.9092 22.3914)">
<stop stop-color="#545452"/>
<stop offset="0.0276326" stop-color="#BAB9B6"/>
<stop offset="0.581728" stop-color="#545452"/>
</radialGradient>
<linearGradient id="paint5_linear_268_2113" x1="30.1942" y1="31.8828" x2="44.5678" y2="63.968" gradientUnits="userSpaceOnUse">
<stop stop-color="#FFCC48"/>
<stop offset="1" stop-color="#ECBB3D"/>
</linearGradient>
</defs>
</svg>
