<svg width="200" height="46" viewBox="0 0 200 46" fill="none" xmlns="http://www.w3.org/2000/svg">
<path d="M18.8672 34.3168V19.9091H25.826V45H19.1449V40.4425H18.8835C18.3172 41.9126 17.3752 43.0942 16.0575 43.9872C14.7507 44.8802 13.1553 45.3267 11.2713 45.3267C9.59422 45.3267 8.11861 44.9455 6.84446 44.1832C5.57031 43.4209 4.57386 42.3374 3.85511 40.9325C3.14725 39.5277 2.78788 37.8452 2.77699 35.8849V19.9091H9.7358V34.6435C9.74669 36.1245 10.1442 37.2952 10.9283 38.1555C11.7124 39.0159 12.7633 39.446 14.081 39.446C14.9195 39.446 15.7036 39.2554 16.4332 38.8743C17.1629 38.4822 17.7509 37.9051 18.1974 37.1428C18.6548 36.3804 18.8781 35.4384 18.8672 34.3168ZM52.2686 27.0639L45.8979 27.456C45.789 26.9115 45.5549 26.4214 45.1955 25.9858C44.8361 25.5393 44.3624 25.1854 43.7743 24.924C43.1971 24.6518 42.5056 24.5156 41.6998 24.5156C40.6216 24.5156 39.7123 24.7443 38.9718 25.2017C38.2312 25.6482 37.861 26.2472 37.861 26.9986C37.861 27.5975 38.1006 28.1039 38.5797 28.5178C39.0589 28.9316 39.8811 29.2637 41.0463 29.5142L45.5875 30.429C48.0269 30.9299 49.8456 31.7358 51.0435 32.8466C52.2414 33.9574 52.8404 35.4167 52.8404 37.2244C52.8404 38.8688 52.3558 40.3118 51.3865 41.5533C50.4282 42.7947 49.1105 43.764 47.4334 44.4609C45.7672 45.147 43.8451 45.4901 41.6671 45.4901C38.3456 45.4901 35.6993 44.7985 33.7282 43.4155C31.7679 42.0215 30.619 40.1267 30.2814 37.7308L37.1259 37.3714C37.3328 38.3842 37.8337 39.1574 38.6287 39.6911C39.4237 40.2138 40.4419 40.4751 41.6834 40.4751C42.9031 40.4751 43.8832 40.241 44.6238 39.7727C45.3752 39.2936 45.7563 38.6783 45.7672 37.9268C45.7563 37.2952 45.4895 36.7779 44.9668 36.375C44.4441 35.9612 43.6382 35.6454 42.5492 35.4276L38.204 34.5618C35.7537 34.0717 33.9296 33.2223 32.7317 32.0135C31.5447 30.8047 30.9512 29.2637 30.9512 27.3906C30.9512 25.7789 31.3868 24.3904 32.258 23.2251C33.1401 22.0599 34.3761 21.1615 35.9661 20.5298C37.5669 19.8982 39.44 19.5824 41.5854 19.5824C44.7544 19.5824 47.2483 20.2521 49.0669 21.5916C50.8965 22.9311 51.9637 24.7552 52.2686 27.0639Z" fill="url(#paint0_linear_61_1180)"/>
<path d="M63.1193 45H55.5398L67.0888 11.5455H76.2038L87.7365 45H80.157L71.777 19.1903H71.5156L63.1193 45ZM62.6456 31.8501H80.549V37.3714H62.6456V31.8501ZM91.7631 45V11.5455H98.8363V25.3487H113.195V11.5455H120.252V45H113.195V31.1804H98.8363V45H91.7631ZM131.85 45H124.27L135.819 11.5455H144.934L156.467 45H148.887L140.507 19.1903H140.246L131.85 45ZM131.376 31.8501H149.279V37.3714H131.376V31.8501Z" fill="url(#paint1_linear_61_1180)"/>
<path d="M184.299 38.149H175.189C174.762 38.6883 174.755 38.9997 175.189 39.5725H184.299C184.809 39.0341 184.772 38.7212 184.299 38.149Z" fill="#BAB9B6"/>
<path d="M184.299 40.4266H175.189C174.942 40.8351 174.974 41.089 175.189 41.5654H184.299C184.494 41.1206 184.517 40.8714 184.299 40.4266Z" fill="#BAB9B6"/>
<path d="M175.474 43.5582C175.233 43.0831 175.167 42.8254 175.474 42.4194H183.73C184.017 42.8642 183.879 43.1135 183.73 43.5582H175.474Z" fill="#BAB9B6"/>
<path d="M183.445 44.4123H175.758C176.246 45.2206 176.707 45.4391 177.751 45.5511H181.737C182.842 45.2876 183.238 45.0478 183.445 44.4123Z" fill="#BAB9B6"/>
<path d="M184.299 38.149H175.189C174.762 38.6883 174.755 38.9997 175.189 39.5725H184.299C184.809 39.0341 184.772 38.7212 184.299 38.149Z" stroke="#8F8E8C" stroke-opacity="0.89" stroke-width="0.569386"/>
<path d="M184.299 40.4266H175.189C174.942 40.8351 174.974 41.089 175.189 41.5654H184.299C184.494 41.1206 184.517 40.8714 184.299 40.4266Z" stroke="#8F8E8C" stroke-opacity="0.89" stroke-width="0.569386"/>
<path d="M175.474 43.5582C175.233 43.0831 175.167 42.8254 175.474 42.4194H183.73C184.017 42.8642 183.879 43.1135 183.73 43.5582H175.474Z" stroke="#8F8E8C" stroke-opacity="0.89" stroke-width="0.569386"/>
<path d="M183.445 44.4123H175.758C176.246 45.2206 176.707 45.4391 177.751 45.5511H181.737C182.842 45.2876 183.238 45.0478 183.445 44.4123Z" stroke="#8F8E8C" stroke-opacity="0.89" stroke-width="0.569386"/>
<path d="M168.058 18.7651C167.478 22.1511 168.388 27.078 172.341 31.0316C172.626 33.8785 173.032 35.5825 174.334 37.2948H184.868C186.861 33.8785 186.291 33.5938 186.861 31.0316C190.91 26.4142 192.27 21.9214 190.277 16.2276C187.852 11.1365 184.583 9.11023 179.459 9.11023C175.417 9.11023 172.084 11.0584 170.157 13.8372C169.135 15.3114 168.361 16.997 168.058 18.7651Z" fill="url(#paint2_linear_61_1180)" fill-opacity="0.89"/>
<path d="M184.299 38.149H175.189C174.762 38.6883 174.755 38.9997 175.189 39.5725H184.299C184.809 39.0341 184.772 38.7212 184.299 38.149Z" fill="url(#paint3_radial_61_1180)"/>
<path d="M184.299 40.4266H175.189C174.942 40.8351 174.974 41.089 175.189 41.5654H184.299C184.494 41.1206 184.517 40.8714 184.299 40.4266Z" fill="url(#paint4_radial_61_1180)"/>
<path d="M175.474 43.5582C175.233 43.0831 175.167 42.8254 175.474 42.4194H183.73C184.017 42.8642 183.879 43.1135 183.73 43.5582H175.474Z" fill="url(#paint5_radial_61_1180)"/>
<path d="M183.445 44.4123H175.758C176.246 45.2206 176.707 45.4391 177.751 45.5511H181.737C182.842 45.2876 183.238 45.0478 183.445 44.4123Z" fill="url(#paint6_radial_61_1180)"/>
<path d="M184.299 38.149H175.189C174.762 38.6883 174.755 38.9997 175.189 39.5725H184.299C184.809 39.0341 184.772 38.7212 184.299 38.149Z" stroke="#8F8E8C" stroke-opacity="0.6" stroke-width="0.569386"/>
<path d="M184.299 40.4266H175.189C174.942 40.8351 174.974 41.089 175.189 41.5654H184.299C184.494 41.1206 184.517 40.8714 184.299 40.4266Z" stroke="#8F8E8C" stroke-opacity="0.6" stroke-width="0.569386"/>
<path d="M175.474 43.5582C175.233 43.0831 175.167 42.8254 175.474 42.4194H183.73C184.017 42.8642 183.879 43.1135 183.73 43.5582H175.474Z" stroke="#8F8E8C" stroke-opacity="0.6" stroke-width="0.569386"/>
<path d="M183.445 44.4123H175.758C176.246 45.2206 176.707 45.4391 177.751 45.5511H181.737C182.842 45.2876 183.238 45.0478 183.445 44.4123Z" stroke="#8F8E8C" stroke-opacity="0.6" stroke-width="0.569386"/>
<path d="M184.583 28.1846C188.096 23.7731 188.766 20.739 189.423 14.8041C192.84 21.6367 190.847 26.1918 186.861 31.0316C186.326 34.0594 186.522 35.1798 184.868 37.2948H178.32C180.324 36.6875 181.41 35.972 183.16 34.7326C184.193 32.7131 184.725 31.5274 184.583 28.1846Z" fill="url(#paint7_linear_61_1180)" fill-opacity="0.89"/>
<rect x="162.662" y="34.3303" width="6.53587" height="1.81518" rx="0.907591" transform="rotate(-33.248 162.662 34.3303)" fill="#FED365"/>
<rect x="192.142" y="30.7469" width="6.53587" height="1.81518" rx="0.907591" transform="rotate(33.8239 192.142 30.7469)" fill="#FED365"/>
<rect x="158.7" y="20.5869" width="6.53587" height="1.81518" rx="0.907591" fill="#FED365"/>
<rect x="193.409" y="20.4979" width="6.53587" height="1.81518" rx="0.907591" fill="#FED365"/>
<rect x="163.103" y="5.69385" width="6.53587" height="1.81518" rx="0.907591" transform="rotate(33.8155 163.103 5.69385)" fill="#FED365"/>
<rect x="195.77" y="7.49829" width="6.53587" height="1.81518" rx="0.907591" transform="rotate(132.874 195.77 7.49829)" fill="#FED365"/>
<rect x="179.278" width="6.53587" height="1.81518" rx="0.907591" transform="rotate(86.8191 179.278 0)" fill="#FED365"/>
<path d="M171.203 19.3591C170.2 19.5499 170.2 19.4335 169.779 18.6732C170.634 15.5416 172.057 14.1181 174.335 11.8406L174.335 11.8406C175.429 11.5277 175.36 11.9461 175.473 12.8111C173.586 15.4162 172.155 16.6202 171.203 19.3591Z" fill="#FFFBEB"/>
<path d="M170.634 21.3519C171.062 20.5891 169.64 20.0323 169.21 20.7825C168.78 21.5327 168.846 21.8499 169.05 22.9999C169.254 24.1499 170.634 23.4986 170.634 22.9236C170.634 22.3486 170.205 22.1147 170.634 21.3519Z" fill="#FFFBEB"/>
<defs>
<linearGradient id="paint0_linear_61_1180" x1="20.4201" y1="22.3935" x2="0.854871" y2="51.7815" gradientUnits="userSpaceOnUse">
<stop stop-color="#2F76E0"/>
<stop offset="1" stop-color="#19407A"/>
</linearGradient>
<linearGradient id="paint1_linear_61_1180" x1="112.7" y1="13.225" x2="113.275" y2="63.25" gradientUnits="userSpaceOnUse">
<stop offset="0.112922" stop-color="#FED365"/>
<stop offset="1" stop-color="#D89F30"/>
</linearGradient>
<linearGradient id="paint2_linear_61_1180" x1="169.21" y1="9.11023" x2="179.441" y2="37.2948" gradientUnits="userSpaceOnUse">
<stop offset="0.00377003" stop-color="#FCDC8C"/>
<stop offset="0.65" stop-color="#FFC531"/>
</linearGradient>
<radialGradient id="paint3_radial_61_1180" cx="0" cy="0" r="1" gradientUnits="userSpaceOnUse" gradientTransform="translate(179.767 41.8501) rotate(88.7955) scale(9.90233 13.1128)">
<stop stop-color="#545452"/>
<stop offset="0.0276326" stop-color="#BAB9B6"/>
<stop offset="0.581728" stop-color="#545452"/>
</radialGradient>
<radialGradient id="paint4_radial_61_1180" cx="0" cy="0" r="1" gradientUnits="userSpaceOnUse" gradientTransform="translate(179.767 41.8501) rotate(88.7955) scale(9.90233 13.1128)">
<stop stop-color="#545452"/>
<stop offset="0.0276326" stop-color="#BAB9B6"/>
<stop offset="0.581728" stop-color="#545452"/>
</radialGradient>
<radialGradient id="paint5_radial_61_1180" cx="0" cy="0" r="1" gradientUnits="userSpaceOnUse" gradientTransform="translate(179.767 41.8501) rotate(88.7955) scale(9.90233 13.1128)">
<stop stop-color="#545452"/>
<stop offset="0.0276326" stop-color="#BAB9B6"/>
<stop offset="0.581728" stop-color="#545452"/>
</radialGradient>
<radialGradient id="paint6_radial_61_1180" cx="0" cy="0" r="1" gradientUnits="userSpaceOnUse" gradientTransform="translate(179.767 41.8501) rotate(88.7955) scale(9.90233 13.1128)">
<stop stop-color="#545452"/>
<stop offset="0.0276326" stop-color="#BAB9B6"/>
<stop offset="0.581728" stop-color="#545452"/>
</radialGradient>
<linearGradient id="paint7_linear_61_1180" x1="176.327" y1="18.5051" x2="184.745" y2="37.2948" gradientUnits="userSpaceOnUse">
<stop stop-color="#FFCC48"/>
<stop offset="1" stop-color="#ECBB3D"/>
</linearGradient>
</defs>
</svg>