<svg width="21" height="20" viewBox="0 0 21 20" fill="none" xmlns="http://www.w3.org/2000/svg">
<path d="M10.6406 20C5.13062 20 0.640625 15.51 0.640625 10C0.640625 4.49 5.13062 0 10.6406 0C16.1506 0 20.6406 4.04 20.6406 9C20.6406 12.31 17.9506 15 14.6406 15H12.8706C12.5906 15 12.3706 15.22 12.3706 15.5C12.3706 15.62 12.4206 15.73 12.5006 15.83C12.9106 16.3 13.1406 16.89 13.1406 17.5C13.1406 18.88 12.0206 20 10.6406 20ZM10.6406 2C6.23063 2 2.64062 5.59 2.64062 10C2.64062 14.41 6.23063 18 10.6406 18C10.9206 18 11.1406 17.78 11.1406 17.5C11.1406 17.34 11.0606 17.22 11.0006 17.15C10.5906 16.69 10.3706 16.1 10.3706 15.5C10.3706 14.12 11.4906 13 12.8706 13H14.6406C16.8506 13 18.6406 11.21 18.6406 9C18.6406 5.14 15.0506 2 10.6406 2Z" fill="white"/>
<path d="M5.14062 11C5.96905 11 6.64062 10.3284 6.64062 9.5C6.64062 8.67157 5.96905 8 5.14062 8C4.3122 8 3.64062 8.67157 3.64062 9.5C3.64062 10.3284 4.3122 11 5.14062 11Z" fill="white"/>
<path d="M8.14062 7C8.96905 7 9.64062 6.32843 9.64062 5.5C9.64062 4.67157 8.96905 4 8.14062 4C7.3122 4 6.64062 4.67157 6.64062 5.5C6.64062 6.32843 7.3122 7 8.14062 7Z" fill="white"/>
<path d="M13.1406 7C13.9691 7 14.6406 6.32843 14.6406 5.5C14.6406 4.67157 13.9691 4 13.1406 4C12.3122 4 11.6406 4.67157 11.6406 5.5C11.6406 6.32843 12.3122 7 13.1406 7Z" fill="white"/>
<path d="M16.1406 11C16.9691 11 17.6406 10.3284 17.6406 9.5C17.6406 8.67157 16.9691 8 16.1406 8C15.3122 8 14.6406 8.67157 14.6406 9.5C14.6406 10.3284 15.3122 11 16.1406 11Z" fill="white"/>
</svg>
