<svg width="25" height="25" viewBox="0 0 25 25" fill="none" xmlns="http://www.w3.org/2000/svg">
<path d="M12.3555 22.3203C6.84547 22.3203 2.35547 17.8303 2.35547 12.3203C2.35547 6.81031 6.84547 2.32031 12.3555 2.32031C17.8655 2.32031 22.3555 6.36031 22.3555 11.3203C22.3555 14.6303 19.6655 17.3203 16.3555 17.3203H14.5855C14.3055 17.3203 14.0855 17.5403 14.0855 17.8203C14.0855 17.9403 14.1355 18.0503 14.2155 18.1503C14.6255 18.6203 14.8555 19.2103 14.8555 19.8203C14.8555 21.2003 13.7355 22.3203 12.3555 22.3203ZM12.3555 4.32031C7.94547 4.32031 4.35547 7.91031 4.35547 12.3203C4.35547 16.7303 7.94547 20.3203 12.3555 20.3203C12.6355 20.3203 12.8555 20.1003 12.8555 19.8203C12.8555 19.6603 12.7755 19.5403 12.7155 19.4703C12.3055 19.0103 12.0855 18.4203 12.0855 17.8203C12.0855 16.4403 13.2055 15.3203 14.5855 15.3203H16.3555C18.5655 15.3203 20.3555 13.5303 20.3555 11.3203C20.3555 7.46031 16.7655 4.32031 12.3555 4.32031Z" fill="#FFFFFF"/>
<path d="M6.85547 13.3203C7.6839 13.3203 8.35547 12.6487 8.35547 11.8203C8.35547 10.9919 7.6839 10.3203 6.85547 10.3203C6.02704 10.3203 5.35547 10.9919 5.35547 11.8203C5.35547 12.6487 6.02704 13.3203 6.85547 13.3203Z" fill="#FFFFFF"/>
<path d="M9.85547 9.32031C10.6839 9.32031 11.3555 8.64874 11.3555 7.82031C11.3555 6.99189 10.6839 6.32031 9.85547 6.32031C9.02704 6.32031 8.35547 6.99189 8.35547 7.82031C8.35547 8.64874 9.02704 9.32031 9.85547 9.32031Z" fill="#FFFFFF"/>
<path d="M14.8555 9.32031C15.6839 9.32031 16.3555 8.64874 16.3555 7.82031C16.3555 6.99189 15.6839 6.32031 14.8555 6.32031C14.027 6.32031 13.3555 6.99189 13.3555 7.82031C13.3555 8.64874 14.027 9.32031 14.8555 9.32031Z" fill="#FFFFFF"/>
<path d="M17.8555 13.3203C18.6839 13.3203 19.3555 12.6487 19.3555 11.8203C19.3555 10.9919 18.6839 10.3203 17.8555 10.3203C17.027 10.3203 16.3555 10.9919 16.3555 11.8203C16.3555 12.6487 17.027 13.3203 17.8555 13.3203Z" fill="#FFFFFF"/>
</svg>

