<svg width="29" height="29" viewBox="0 0 29 29" fill="none" xmlns="http://www.w3.org/2000/svg">
<path d="M7.91001 8.74004C7.52241 9.36704 7.45401 9.84584 7.45401 10.3132C7.45401 11.191 8.59401 13.3 8.59401 14.44C8.59401 15.523 8.13801 16.15 8.13801 16.15H6.42801C6.42801 16.15 6.88401 15.523 6.88401 14.44C6.88401 13.3 5.74401 11.191 5.74401 10.3132C5.74401 9.84584 5.81241 9.36704 6.20001 8.74004H7.91001ZM13.61 8.74004C13.2224 9.36704 13.154 9.84584 13.154 10.3132C13.154 11.191 14.294 13.3 14.294 14.44C14.294 15.523 13.838 16.15 13.838 16.15H15.548C15.548 16.15 16.004 15.523 16.004 14.44C16.004 13.3 14.864 11.191 14.864 10.3132C14.864 9.84584 14.9324 9.36704 15.32 8.74004H13.61ZM9.90501 8.74004C9.51741 9.36704 9.44901 9.84584 9.44901 10.3132C9.44901 11.191 10.589 13.3114 10.589 14.44C10.589 15.523 10.133 16.15 10.133 16.15H11.843C11.843 16.15 12.299 15.523 12.299 14.44C12.299 13.3 11.159 11.191 11.159 10.3132C11.159 9.84584 11.2274 9.36704 11.615 8.74004H9.90501ZM21.818 3.04004C20.0624 3.04004 18.6146 4.36244 18.4208 6.06104L17.1782 17.86H5.18541C4.50141 17.86 3.94281 18.4642 4.04541 19.1482C4.63821 22.9444 7.89861 25.84 11.729 25.84C15.6962 25.84 18.9566 22.7278 19.3784 18.7378L20.6894 6.34604C20.7464 5.76464 21.2252 5.32004 21.818 5.32004C22.445 5.32004 22.958 5.83304 22.958 6.46004C22.958 6.80204 22.844 7.88504 22.844 7.88504L25.0898 8.17004C25.0898 8.17004 25.238 6.96164 25.238 6.46004C25.238 4.57904 23.699 3.04004 21.818 3.04004ZM11.729 23.56C9.51741 23.56 7.54521 22.1578 6.67881 20.14H16.6994C15.8786 22.1692 13.9406 23.56 11.729 23.56Z" fill="#FFFFFF"/>
</svg>
