<svg width="22" height="24" viewBox="0 0 22 24" fill="none" xmlns="http://www.w3.org/2000/svg">
<path d="M4.19516 6.3001C3.80756 6.9271 3.73916 7.4059 3.73916 7.8733C3.73916 8.7511 4.87916 10.8601 4.87916 12.0001C4.87916 13.0831 4.42316 13.7101 4.42316 13.7101H2.71316C2.71316 13.7101 3.16916 13.0831 3.16916 12.0001C3.16916 10.8601 2.02916 8.7511 2.02916 7.8733C2.02916 7.4059 2.09756 6.9271 2.48516 6.3001H4.19516ZM9.89516 6.3001C9.50756 6.9271 9.43916 7.4059 9.43916 7.8733C9.43916 8.7511 10.5792 10.8601 10.5792 12.0001C10.5792 13.0831 10.1232 13.7101 10.1232 13.7101H11.8332C11.8332 13.7101 12.2892 13.0831 12.2892 12.0001C12.2892 10.8601 11.1492 8.7511 11.1492 7.8733C11.1492 7.4059 11.2176 6.9271 11.6052 6.3001H9.89516ZM6.19016 6.3001C5.80256 6.9271 5.73416 7.4059 5.73416 7.8733C5.73416 8.7511 6.87416 10.8715 6.87416 12.0001C6.87416 13.0831 6.41816 13.7101 6.41816 13.7101H8.12816C8.12816 13.7101 8.58416 13.0831 8.58416 12.0001C8.58416 10.8601 7.44416 8.7511 7.44416 7.8733C7.44416 7.4059 7.51256 6.9271 7.90016 6.3001H6.19016ZM18.1032 0.600098C16.3476 0.600098 14.8998 1.9225 14.706 3.6211L13.4634 15.4201H1.47056C0.786563 15.4201 0.227963 16.0243 0.330563 16.7083C0.923363 20.5045 4.18376 23.4001 8.01416 23.4001C11.9814 23.4001 15.2418 20.2879 15.6636 16.2979L16.9746 3.9061C17.0316 3.3247 17.5104 2.8801 18.1032 2.8801C18.7302 2.8801 19.2432 3.3931 19.2432 4.0201C19.2432 4.3621 19.1292 5.4451 19.1292 5.4451L21.375 5.7301C21.375 5.7301 21.5232 4.5217 21.5232 4.0201C21.5232 2.1391 19.9842 0.600098 18.1032 0.600098ZM8.01416 21.1201C5.80256 21.1201 3.83036 19.7179 2.96396 17.7001H12.9846C12.1638 19.7293 10.2258 21.1201 8.01416 21.1201Z" fill="white"/>
</svg>
