<svg width="25" height="25" viewBox="0 0 25 25" fill="none" xmlns="http://www.w3.org/2000/svg">
<path d="M12.5 3.39941L1.5 11.7994L2.71 13.3894L4.5 12.0194V21.3994H20.5V12.0194L22.29 13.3794L23.5 11.7994L12.5 3.39941ZM18.5 19.3994H6.5V10.4994L12.5 5.91941L18.5 10.4994V19.3994ZM9.5 14.3994C9.5 14.9494 9.05 15.3994 8.5 15.3994C7.95 15.3994 7.5 14.9494 7.5 14.3994C7.5 13.8494 7.95 13.3994 8.5 13.3994C9.05 13.3994 9.5 13.8494 9.5 14.3994ZM12.5 13.3994C13.05 13.3994 13.5 13.8494 13.5 14.3994C13.5 14.9494 13.05 15.3994 12.5 15.3994C11.95 15.3994 11.5 14.9494 11.5 14.3994C11.5 13.8494 11.95 13.3994 12.5 13.3994ZM15.5 14.3994C15.5 13.8494 15.95 13.3994 16.5 13.3994C17.05 13.3994 17.5 13.8494 17.5 14.3994C17.5 14.9494 17.05 15.3994 16.5 15.3994C15.95 15.3994 15.5 14.9494 15.5 14.3994Z" fill="#7C89A8"/>
</svg>
