<svg width="25" height="25" viewBox="0 0 25 25" fill="none" xmlns="http://www.w3.org/2000/svg">
<path d="M12.5 3.2793L1.5 11.6793L2.71 13.2693L4.5 11.8993V21.2793H20.5V11.8993L22.29 13.2593L23.5 11.6793L12.5 3.2793ZM18.5 19.2793H6.5V10.3793L12.5 5.7993L18.5 10.3793V19.2793ZM9.5 14.2793C9.5 14.8293 9.05 15.2793 8.5 15.2793C7.95 15.2793 7.5 14.8293 7.5 14.2793C7.5 13.7293 7.95 13.2793 8.5 13.2793C9.05 13.2793 9.5 13.7293 9.5 14.2793ZM12.5 13.2793C13.05 13.2793 13.5 13.7293 13.5 14.2793C13.5 14.8293 13.05 15.2793 12.5 15.2793C11.95 15.2793 11.5 14.8293 11.5 14.2793C11.5 13.7293 11.95 13.2793 12.5 13.2793ZM15.5 14.2793C15.5 13.7293 15.95 13.2793 16.5 13.2793C17.05 13.2793 17.5 13.7293 17.5 14.2793C17.5 14.8293 17.05 15.2793 16.5 15.2793C15.95 15.2793 15.5 14.8293 15.5 14.2793Z" fill="#1973F9"/>
</svg>
