<svg width="23" height="18" viewBox="0 0 23 18" fill="none" xmlns="http://www.w3.org/2000/svg">
<path d="M11.5693 0L0.569336 8.4L1.77934 9.99L3.56934 8.62V18H19.5693V8.62L21.3593 9.98L22.5693 8.4L11.5693 0ZM17.5693 16H5.56934V7.1L11.5693 2.52L17.5693 7.1V16ZM8.56934 11C8.56934 11.55 8.11934 12 7.56934 12C7.01934 12 6.56934 11.55 6.56934 11C6.56934 10.45 7.01934 10 7.56934 10C8.11934 10 8.56934 10.45 8.56934 11ZM11.5693 10C12.1193 10 12.5693 10.45 12.5693 11C12.5693 11.55 12.1193 12 11.5693 12C11.0193 12 10.5693 11.55 10.5693 11C10.5693 10.45 11.0193 10 11.5693 10ZM14.5693 11C14.5693 10.45 15.0193 10 15.5693 10C16.1193 10 16.5693 10.45 16.5693 11C16.5693 11.55 16.1193 12 15.5693 12C15.0193 12 14.5693 11.55 14.5693 11Z" fill="white"/>
</svg>
