<svg width="28" height="22" viewBox="0 0 28 22" fill="none" xmlns="http://www.w3.org/2000/svg">
<path d="M3.12485 18.4306V21H24.0815V18.4306M3.12485 18.4306C1.26617 17.2119 1.23919 16.5274 3.12485 15.3795H17.658V9.75889C17.5808 8.54361 17.291 8.15684 16.2127 8.15302H10.6725C9.69829 8.24453 9.32961 8.4969 9.38776 9.75889V11.4451H5.69425M3.12485 18.4306H24.0815M5.69425 11.4451H4.32925L3.12485 3.2551C3.20428 1.51077 3.70261 1.00485 5.45337 1.00687H6.97895M5.69425 11.4451V13.4524M24.0815 18.4306V11.0436M24.0815 5.8245V3.2551C24.0596 1.45168 23.5111 0.93072 21.5121 1.00687H9.86953M24.0815 5.8245C24.9939 5.14567 25.4884 5.18134 26.3298 5.8245V11.0436C25.4511 11.7512 24.9597 11.6157 24.0815 11.0436M24.0815 5.8245V11.0436M9.86953 1.00687V5.42303H6.97895V1.00687M9.86953 1.00687H6.97895" stroke="#7C89A8" stroke-width="1.5"/>
</svg>
