<svg width="27" height="22" viewBox="0 0 27 22" fill="none" xmlns="http://www.w3.org/2000/svg">
<path d="M2.83969 18.5109V21.0803H23.7964V18.5109M2.83969 18.5109C0.981015 17.2922 0.954031 16.6077 2.83969 15.4598H17.3729V9.83922C17.2956 8.62393 17.0058 8.23717 15.9276 8.23334H10.3873C9.41313 8.32485 9.04445 8.57722 9.10261 9.83922V11.5254H5.40909M2.83969 18.5109H23.7964M5.40909 11.5254H4.0441L2.83969 3.33542C2.91912 1.5911 3.41745 1.08517 5.16821 1.08719H6.69379M5.40909 11.5254V13.5327M23.7964 18.5109V11.1239M23.7964 5.90482V3.33542C23.7744 1.53201 23.226 1.01104 21.227 1.08719H9.58437M23.7964 5.90482C24.7088 5.22599 25.2033 5.26166 26.0446 5.90482V11.1239C25.166 11.8315 24.6746 11.696 23.7964 11.1239M23.7964 5.90482V11.1239M9.58437 1.08719V5.50335H6.69379V1.08719M9.58437 1.08719H6.69379" stroke="#7C89A8" stroke-width="1.5"/>
<path d="M20.558 5.66403C20.558 6.42165 19.9131 7.08196 19.0597 7.08196C18.2064 7.08196 17.5615 6.42165 17.5615 5.66403C17.5615 4.9064 18.2064 4.24609 19.0597 4.24609C19.9131 4.24609 20.558 4.9064 20.558 5.66403Z" stroke="#7C89A8" stroke-width="1.5"/>
</svg>
