<svg width="27" height="22" viewBox="0 0 27 22" fill="none" xmlns="http://www.w3.org/2000/svg">
<path d="M2.83969 18.6311V21.2005H23.7964V18.6311M2.83969 18.6311C0.981015 17.4123 0.954031 16.7279 2.83969 15.5799H17.3729V9.95933C17.2956 8.74405 17.0058 8.35728 15.9276 8.35346H10.3873C9.41313 8.44497 9.04445 8.69734 9.10261 9.95933V11.6455H5.40909M2.83969 18.6311H23.7964M5.40909 11.6455H4.0441L2.83969 3.45554C2.91912 1.71121 3.41745 1.20529 5.16821 1.20731H6.69379M5.40909 11.6455V13.6528M23.7964 18.6311V11.244M23.7964 6.02494V3.45554C23.7744 1.65212 23.226 1.13116 21.227 1.20731H9.58437M23.7964 6.02494C24.7088 5.34611 25.2033 5.38178 26.0446 6.02494V11.244C25.166 11.9516 24.6746 11.8161 23.7964 11.244M23.7964 6.02494V11.244M9.58437 1.20731V5.62347H6.69379V1.20731M9.58437 1.20731H6.69379" stroke="#1973F9" stroke-width="1.5"/>
<path d="M20.558 5.78414C20.558 6.54177 19.9131 7.20208 19.0597 7.20208C18.2064 7.20208 17.5615 6.54177 17.5615 5.78414C17.5615 5.02652 18.2064 4.36621 19.0597 4.36621C19.9131 4.36621 20.558 5.02652 20.558 5.78414Z" stroke="#1973F9" stroke-width="1.5"/>
</svg>
