<svg width="43" height="43" viewBox="0 0 43 43" fill="none" xmlns="http://www.w3.org/2000/svg">
<path d="M21.5 10.8225C23.425 10.8225 25 12.3975 25 14.3225C25 16.2475 23.425 17.8225 21.5 17.8225C19.575 17.8225 18 16.2475 18 14.3225C18 12.3975 19.575 10.8225 21.5 10.8225ZM21.5 28.3225C26.225 28.3225 31.65 30.58 32 31.8225H11C11.4025 30.5625 16.7925 28.3225 21.5 28.3225ZM21.5 7.32251C17.6325 7.32251 14.5 10.455 14.5 14.3225C14.5 18.19 17.6325 21.3225 21.5 21.3225C25.3675 21.3225 28.5 18.19 28.5 14.3225C28.5 10.455 25.3675 7.32251 21.5 7.32251ZM21.5 24.8225C16.8275 24.8225 7.5 27.1675 7.5 31.8225V35.3225H35.5V31.8225C35.5 27.1675 26.1725 24.8225 21.5 24.8225Z" fill="white"/>
</svg>