<svg width="32" height="32" viewBox="0 0 32 32" fill="none" xmlns="http://www.w3.org/2000/svg">
<path fill-rule="evenodd" clip-rule="evenodd" d="M13.2093 5.33327C13.2506 5.33335 13.292 5.33341 13.3334 5.33341C13.3748 5.33341 13.4162 5.33335 13.4575 5.33327C13.9491 5.33245 14.4323 5.33165 14.8627 5.44699C16.0131 5.75521 16.9115 6.65371 17.2198 7.80401C17.3351 8.23447 17.3343 8.71768 17.3335 9.20931C17.3335 9.25063 17.3334 9.292 17.3334 9.33341H28C28.7364 9.33341 29.3334 9.93036 29.3334 10.6667C29.3334 11.4031 28.7364 12.0001 28 12.0001H17.3334C17.3334 12.0415 17.3335 12.0829 17.3335 12.1242C17.3343 12.6158 17.3351 13.099 17.2198 13.5295C16.9115 14.6798 16.0131 15.5783 14.8627 15.8865C14.4323 16.0018 13.9491 16.001 13.4575 16.0002C13.4162 16.0002 13.3748 16.0001 13.3334 16.0001C13.292 16.0001 13.2506 16.0002 13.2093 16.0002C12.7176 16.001 12.2344 16.0018 11.804 15.8865C10.6537 15.5783 9.75517 14.6798 9.44696 13.5295C9.33161 13.099 9.33241 12.6158 9.33324 12.1242C9.33331 12.0829 9.33337 12.0415 9.33337 12.0001H6.66671C5.93033 12.0001 5.33337 11.4031 5.33337 10.6667C5.33337 9.93036 5.93033 9.33341 6.66671 9.33341H9.33337C9.33337 9.292 9.33331 9.25063 9.33324 9.20931C9.33241 8.71768 9.33161 8.23447 9.44696 7.80401C9.75517 6.65371 10.6537 5.75521 11.804 5.44699C12.2344 5.33165 12.7176 5.33245 13.2093 5.33327ZM12.6649 8.00721C12.5226 8.01369 12.4892 8.02413 12.4942 8.02278C12.2641 8.08444 12.0844 8.26413 12.0228 8.4942C12.0216 8.49888 12.0129 8.53984 12.0072 8.66488C12.0004 8.81425 12 9.01133 12 9.33341V12.0001C12 12.3221 12.0004 12.5192 12.0072 12.6686C12.0137 12.8108 12.0241 12.8443 12.0228 12.8393C12.0844 13.0693 12.2641 13.2491 12.4942 13.3107C12.4892 13.3094 12.5226 13.3198 12.6649 13.3263C12.8142 13.3331 13.0113 13.3334 13.3334 13.3334C13.6555 13.3334 13.8526 13.3331 14.0019 13.3263C14.144 13.3198 14.1775 13.3094 14.1726 13.3107C14.4027 13.2491 14.5823 13.0693 14.644 12.8393C14.6427 12.8443 14.6531 12.8108 14.6595 12.6686C14.6664 12.5192 14.6667 12.3221 14.6667 12.0001V9.33341C14.6667 9.01133 14.6664 8.81425 14.6595 8.66488C14.6531 8.52268 14.6427 8.48921 14.644 8.4942M12.6649 8.00721C12.8142 8.0004 13.0113 8.00008 13.3334 8.00008L12.6649 8.00721ZM13.3334 8.00008C13.6555 8.00008 13.8526 8.0004 14.0019 8.00721L13.3334 8.00008ZM14.0019 8.00721C14.127 8.01291 14.1679 8.02167 14.1726 8.02278L14.0019 8.00721ZM21.2092 15.9999C21.2506 16.0001 21.2919 16.0001 21.3334 16.0001C21.3748 16.0001 21.4162 16.0001 21.4575 15.9999C21.9491 15.9991 22.4323 15.9983 22.8627 16.1137C24.0131 16.4219 24.9115 17.3203 25.2198 18.4707C25.3351 18.9011 25.3343 19.3843 25.3335 19.8759C25.3335 19.9173 25.3334 19.9586 25.3334 20.0001H28C28.7364 20.0001 29.3334 20.597 29.3334 21.3334C29.3334 22.0698 28.7364 22.6667 28 22.6667H25.3334C25.3334 22.7082 25.3335 22.7495 25.3335 22.7909C25.3343 23.2825 25.3351 23.7657 25.2198 24.1962C24.9115 25.3465 24.0131 26.245 22.8627 26.5531C22.4323 26.6685 21.9491 26.6677 21.4575 26.6669C21.4162 26.6669 21.3748 26.6667 21.3334 26.6667C21.2919 26.6667 21.2506 26.6669 21.2092 26.6669C20.7176 26.6677 20.2344 26.6685 19.804 26.5531C18.6536 26.245 17.7552 25.3465 17.447 24.1962C17.3316 23.7657 17.3324 23.2825 17.3332 22.7909C17.3332 22.7495 17.3334 22.7082 17.3334 22.6667H6.66671C5.93033 22.6667 5.33337 22.0698 5.33337 21.3334C5.33337 20.597 5.93033 20.0001 6.66671 20.0001H17.3334C17.3334 19.9587 17.3332 19.9173 17.3332 19.8759C17.3324 19.3843 17.3316 18.9011 17.447 18.4707C17.7552 17.3203 18.6536 16.4219 19.804 16.1137C20.2344 15.9983 20.7176 15.9991 21.2092 15.9999ZM20.6648 18.6739C20.5227 18.6803 20.4892 18.6907 20.4942 18.6894C20.264 18.7511 20.0844 18.9309 20.0227 19.1609C20.024 19.1559 20.0136 19.1894 20.0072 19.3315C20.0003 19.4809 20 19.6781 20 20.0001V22.6667C20 22.9889 20.0003 23.1859 20.0072 23.3353C20.0136 23.4775 20.024 23.511 20.0227 23.5059C20.0844 23.7361 20.264 23.9157 20.4942 23.9774C20.4892 23.9761 20.5227 23.9865 20.6648 23.993C20.8142 23.9998 21.0112 24.0001 21.3334 24.0001C21.6555 24.0001 21.8526 23.9998 22.0019 23.993C22.144 23.9865 22.1775 23.9761 22.1726 23.9774C22.4027 23.9157 22.5823 23.7361 22.644 23.5059C22.6427 23.511 22.6531 23.4775 22.6595 23.3353C22.6664 23.1859 22.6667 22.9889 22.6667 22.6667V20.0001C22.6667 19.6781 22.6664 19.4809 22.6595 19.3315C22.6531 19.1894 22.6427 19.1559 22.644 19.1609C22.5823 18.9309 22.4027 18.7511 22.1726 18.6894C22.1775 18.6907 22.144 18.6803 22.0019 18.6739C21.8526 18.667 21.6555 18.6667 21.3334 18.6667C21.0112 18.6667 20.8142 18.667 20.6648 18.6739Z" fill="#FEFCFC"/>
</svg>