<svg width="39" height="38" viewBox="0 0 39 38" fill="none" xmlns="http://www.w3.org/2000/svg">
<path d="M25.5393 20.9561L22.2577 24.2378L31.5339 33.514L34.8155 30.2323L25.5393 20.9561Z" fill="white"/>
<path d="M28.0084 16.2369C30.9941 16.2369 33.4229 13.8081 33.4229 10.8223C33.4229 9.92508 33.1754 9.08969 32.7886 8.34713L28.6117 12.5241L26.3067 10.219L30.4836 6.04209C29.741 5.65534 28.9056 5.40782 28.0084 5.40782C25.0227 5.40782 22.5939 7.83662 22.5939 10.8223C22.5939 11.4566 22.7176 12.0599 22.9187 12.6169L20.0568 15.4788L17.3031 12.7252L18.4015 11.6268L16.2202 9.44551L19.4998 6.16585C17.6898 4.35585 14.7505 4.35585 12.9405 6.16585L7.46411 11.6423L9.64539 13.8235H5.28283L4.18446 14.9219L9.66086 20.3983L10.7592 19.2999V14.9219L12.9405 17.1032L14.0389 16.0048L16.7926 18.7585L5.32924 30.2218L8.6089 33.5015L26.2139 15.912C26.7708 16.1131 27.3741 16.2369 28.0084 16.2369Z" fill="white"/>
</svg>