<svg width="39" height="39" viewBox="0 0 39 39" fill="none" xmlns="http://www.w3.org/2000/svg">
<path d="M10.0013 6.83008C6.50372 6.83008 3.66797 9.66583 3.66797 13.1634V25.8301C3.66797 29.3276 6.50372 32.1634 10.0013 32.1634L14.7656 32.1792C15.4401 32.1792 16.1462 32.4896 16.9553 33.2353C17.2704 33.5266 17.6472 33.8909 17.9037 34.2313C18.1887 34.6113 18.5608 35.3348 19.5013 35.3301C20.4418 35.3253 20.7474 34.6857 21.0846 34.2407C21.3396 33.9272 21.6452 33.628 21.9602 33.3367C22.7709 32.5909 23.5768 32.1634 24.2513 32.1634H29.0013C32.4989 32.1634 35.3347 29.3276 35.3347 25.8301V13.1634C35.3347 9.66583 32.4989 6.83008 29.0013 6.83008H24.2513C22.3339 6.83008 20.6635 7.71042 19.5013 9.05625C18.3391 7.71042 16.6687 6.83008 14.7513 6.83008H10.0013ZM10.0013 9.99674H14.7513C16.5009 9.99674 17.918 11.4138 17.918 13.1634L17.9275 30.0243C16.9395 29.383 15.8786 28.9967 14.7513 28.9967H10.0013C8.25172 28.9967 6.83464 27.5796 6.83464 25.8301V13.1634C6.83464 11.4138 8.25172 9.99674 10.0013 9.99674ZM24.2513 9.99674H29.0013C30.7509 9.99674 32.168 11.4138 32.168 13.1634V25.8301C32.168 27.5796 30.7509 28.9967 29.0013 28.9967H24.2513C23.124 28.9967 22.0663 29.4036 21.0783 30.0449L21.0846 13.1634C21.0846 11.4138 22.5017 9.99674 24.2513 9.99674Z" fill="#F3F4FB"/>
<path fill-rule="evenodd" clip-rule="evenodd" d="M14.75 13.1665H10V16.3332H14.75V13.1665ZM14.75 17.9165H10V21.0832H14.75V17.9165ZM10 22.6665H14.75V25.8332H10V22.6665ZM29 13.1665H24.25V16.3332H29V13.1665ZM24.25 17.9165H29V21.0832H24.25V17.9165ZM29 22.6665H24.25V25.8332H29V22.6665Z" fill="#F3F4FB"/>
</svg>
