<svg width="32" height="32" viewBox="0 0 32 32" fill="none" xmlns="http://www.w3.org/2000/svg">
<path d="M21.0067 19.0066H19.9533L19.58 18.6466C20.8867 17.1266 21.6733 15.1533 21.6733 13.0066C21.6733 8.21997 17.7933 4.33997 13.0067 4.33997C8.22 4.33997 4.34 8.21997 4.34 13.0066C4.34 17.7933 8.22 21.6733 13.0067 21.6733C15.1533 21.6733 17.1267 20.8866 18.6467 19.58L19.0067 19.9533V21.0066L25.6733 27.66L27.66 25.6733L21.0067 19.0066ZM13.0067 19.0066C9.68666 19.0066 7.00666 16.3266 7.00666 13.0066C7.00666 9.68663 9.68666 7.00663 13.0067 7.00663C16.3267 7.00663 19.0067 9.68663 19.0067 13.0066C19.0067 16.3266 16.3267 19.0066 13.0067 19.0066Z" fill="#A7AFC4"/>
</svg>