<svg width="37" height="36" viewBox="0 0 37 36" fill="none" xmlns="http://www.w3.org/2000/svg">
<path d="M28.8824 10.3826H25.916V13.349H28.8824V10.3826Z" fill="white"/>
<path d="M28.8824 16.3154H25.916V19.2818H28.8824V16.3154Z" fill="white"/>
<path d="M28.8824 22.2483H25.916V25.2147H28.8824V22.2483Z" fill="white"/>
<path d="M2.18457 16.3154V31.1476H11.0839V23.7315H14.0503V31.1476H22.9496V16.3154L12.5671 8.89935L2.18457 16.3154ZM19.9831 28.1811H17.0167V20.7651H8.11743V28.1811H5.151V17.7986L12.5671 12.6074L19.9831 17.7986V28.1811Z" fill="white"/>
<path d="M15.5335 4.44971V7.37164L18.4999 9.49263V7.41614H31.8488V28.1811H25.916V31.1476H34.8153V4.44971H15.5335Z" fill="white"/>
<path d="M2.31685 30.9888V16.5274L12.6464 8.95239C12.6464 8.95239 22.976 16.1831 22.976 16.5274V30.9888H14.0237V23.4138H10.9248V30.9888H2.31685Z" fill="white"/>
</svg>
